<svg width="55" height="55" viewBox="0 0 55 55" fill="none" xmlns="http://www.w3.org/2000/svg">
<rect x="0.5" y="0.5" width="54" height="54" rx="27" fill="#EFF1FA"/>
<rect x="0.5" y="0.5" width="54" height="54" rx="27" stroke="#6B34BC"/>
<g clip-path="url(#clip0_1_812)">
<path d="M32.1864 15C30.8536 15.0922 29.2958 15.9453 28.388 17.0562C27.5599 18.064 26.8786 19.5609 27.1443 21.0156C28.6005 21.0609 30.1052 20.1875 30.977 19.0578C31.7927 18.0062 32.4098 16.5187 32.1864 15Z" fill="black"/>
<path d="M37.4536 23.3874C36.1739 21.7827 34.3755 20.8515 32.6771 20.8515C30.4349 20.8515 29.4865 21.9249 27.9287 21.9249C26.3224 21.9249 25.1021 20.8546 23.1631 20.8546C21.2584 20.8546 19.2303 22.0187 17.9443 24.0093C16.1365 26.8124 16.4459 32.0827 19.3756 36.5717C20.424 38.178 21.824 39.9842 23.6552 39.9998C25.2849 40.0155 25.7443 38.9545 27.9521 38.9436C30.1599 38.9311 30.5786 40.0139 32.2052 39.9967C34.038 39.9826 35.5146 37.9811 36.563 36.3749C37.3145 35.2233 37.5942 34.6436 38.177 33.3436C33.938 31.7296 33.2583 25.7015 37.4536 23.3874Z" fill="black"/>
</g>
<defs>
<clipPath id="clip0_1_812">
<rect width="25" height="25" fill="white" transform="translate(15 15)"/>
</clipPath>
</defs>
</svg>
