<svg width="234" height="178" viewBox="0 0 234 178" fill="none" xmlns="http://www.w3.org/2000/svg">
<path d="M233.74 156.722H0.259521V156.839H233.74V156.722Z" fill="#EFF1FA"/>
<path d="M40.2221 161.168H24.7563V161.285H40.2221V161.168Z" fill="#EFF1FA"/>
<path d="M102.006 159.902H80.1753V160.019H102.006V159.902Z" fill="#EFF1FA"/>
<path d="M61.8939 164.777H52.9329V164.894H61.8939V164.777Z" fill="#EFF1FA"/>
<path d="M160.213 162.751H146.106V162.868H160.213V162.751Z" fill="#EFF1FA"/>
<path d="M173.39 162.751H164.369V162.868H173.39V162.751Z" fill="#EFF1FA"/>
<path d="M210.35 164.721H183.005V164.838H210.35V164.721Z" fill="#EFF1FA"/>
<path d="M110.929 135.896H20.7637C20.0574 135.895 19.3804 135.613 18.8814 135.113C18.3823 134.613 18.102 133.936 18.1021 133.229V6.48202C18.1082 5.77972 18.3912 5.10821 18.8896 4.61334C19.3879 4.11848 20.0614 3.84022 20.7637 3.83902H110.929C111.637 3.83902 112.315 4.11994 112.815 4.61998C113.315 5.12001 113.596 5.79821 113.596 6.50537V133.229C113.596 133.937 113.315 134.615 112.815 135.115C112.315 135.615 111.637 135.896 110.929 135.896ZM20.7637 3.93241C20.0883 3.93365 19.441 4.20281 18.9639 4.68082C18.4868 5.15884 18.2188 5.80663 18.2188 6.48202V133.229C18.2188 133.905 18.4868 134.553 18.9639 135.031C19.441 135.509 20.0883 135.778 20.7637 135.779H110.929C111.605 135.778 112.253 135.509 112.731 135.031C113.209 134.553 113.478 133.905 113.479 133.229V6.48202C113.478 5.8062 113.209 5.15842 112.731 4.68054C112.253 4.20266 111.605 3.93365 110.929 3.93241H20.7637Z" fill="#EFF1FA"/>
<path d="M211.938 135.896H121.768C121.061 135.895 120.383 135.613 119.884 135.113C119.384 134.614 119.103 133.936 119.101 133.229V6.48202C119.109 5.7793 119.393 5.10779 119.892 4.61305C120.391 4.11831 121.065 3.84021 121.768 3.83902H211.938C212.64 3.84145 213.312 4.12025 213.809 4.61498C214.307 5.10972 214.589 5.78053 214.595 6.48202V133.229C214.595 133.935 214.315 134.612 213.817 135.112C213.319 135.611 212.644 135.893 211.938 135.896ZM121.768 3.93241C121.092 3.93365 120.444 4.20266 119.966 4.68054C119.488 5.15842 119.219 5.8062 119.218 6.48202V133.229C119.219 133.905 119.488 134.553 119.966 135.031C120.444 135.509 121.092 135.778 121.768 135.779H211.938C212.614 135.778 213.262 135.509 213.739 135.031C214.217 134.553 214.486 133.905 214.488 133.229V6.48202C214.486 5.8062 214.217 5.15842 213.739 4.68054C213.262 4.20266 212.614 3.93365 211.938 3.93241H121.768Z" fill="#EFF1FA"/>
<path d="M199.026 15.3683H163.388V149.377H199.026V15.3683Z" fill="#EFF1FA"/>
<path d="M201.202 15.3683H165.564V149.377H201.202V15.3683Z" fill="#EFF1FA"/>
<path d="M197.294 145.814V18.9312H169.472V145.814H197.294Z" fill="#EFF1FA"/>
<path d="M197.294 145.814V18.9312H195.65V145.814H197.294Z" fill="#EFF1FA"/>
<path d="M199.587 124.432H167.18V129.214H199.587V124.432Z" fill="#EFF1FA"/>
<path d="M199.587 25.2119H167.18V29.9935H199.587V25.2119Z" fill="#EFF1FA"/>
<path d="M65.6341 15.3683H29.9956V149.377H65.6341V15.3683Z" fill="#EFF1FA"/>
<path d="M67.8102 15.3683H32.1716V149.377H67.8102V15.3683Z" fill="#EFF1FA"/>
<path d="M63.9019 145.814L63.9019 18.9312H36.0803L36.0803 145.814H63.9019Z" fill="#EFF1FA"/>
<path d="M63.9019 145.814L63.9019 18.9312H62.2581L62.2581 145.814H63.9019Z" fill="#EFF1FA"/>
<path d="M66.1945 124.432H33.7874V129.214H66.1945V124.432Z" fill="#EFF1FA"/>
<path d="M66.1945 25.2119H33.7874V29.9935H66.1945V25.2119Z" fill="#EFF1FA"/>
<path d="M82.2674 93.3649L153.423 93.3649V25.6555L82.2674 25.6555L82.2674 93.3649Z" fill="#EFF1FA"/>
<path d="M82.2673 25.6602H80.5769V93.3696H82.2673V25.6602Z" fill="#EFF1FA"/>
<path d="M150.626 90.5678V28.4619L85.0739 28.4619V90.5678H150.626Z" fill="#EFF1FA"/>
<path d="M85.0691 59.2814C106.685 56.7878 128.305 61.7703 149.921 59.2814V58.0346C128.305 60.5235 106.685 55.5457 85.0691 58.0346V59.2814Z" fill="#EFF1FA"/>
<path d="M150.621 90.5678V28.4619H149.921V90.5678H150.621Z" fill="#EFF1FA"/>
<path d="M64.5836 142.914C64.3563 142.909 64.135 142.841 63.9444 142.717C63.7538 142.593 63.6014 142.419 63.5044 142.213C63.4075 142.007 63.3697 141.779 63.3953 141.553C63.421 141.327 63.5091 141.113 63.6497 140.934C64.3408 140.061 62.6597 138.039 60.8806 135.896C57.0889 131.338 51.3592 124.446 59.1855 116.54C64.1213 111.553 64.0139 109.489 63.7384 108.831C63.2481 107.663 60.9366 107.402 60.1895 107.43C59.8787 107.411 59.5869 107.274 59.3736 107.047C59.1603 106.82 59.0416 106.52 59.0416 106.209C59.0416 105.897 59.1603 105.598 59.3736 105.371C59.5869 105.144 59.8787 105.007 60.1895 104.988C60.6564 104.988 64.7937 105.02 66.0078 107.887C67.0585 110.367 65.4008 113.766 60.9413 118.268C54.6747 124.595 58.9847 129.774 62.7811 134.346C65.214 137.273 67.5114 140.033 65.5829 142.461C65.4636 142.61 65.3109 142.728 65.1373 142.807C64.9637 142.886 64.774 142.922 64.5836 142.914Z" fill="#EFF1FA"/>
<path d="M46.9136 131.908H72.9654L67.1984 156.722H52.6852L46.9136 131.908Z" fill="#EFF1FA"/>
<path d="M46.643 133.019H73.2598C73.5542 133.018 73.8361 132.901 74.0443 132.692C74.2524 132.484 74.3699 132.202 74.3711 131.908C74.3699 131.614 74.2523 131.333 74.044 131.125C73.8357 130.918 73.5537 130.801 73.2598 130.801H46.643C46.3531 130.807 46.077 130.926 45.8738 131.133C45.6705 131.34 45.5561 131.618 45.5549 131.908C45.5549 132.199 45.6687 132.478 45.8721 132.686C46.0755 132.893 46.3523 133.013 46.643 133.019Z" fill="#EFF1FA"/>
<path d="M69.0943 105.777L44.4807 113.907C44.4807 113.907 35.5617 107.883 42.0385 105.174C38.9612 99.9211 38.569 89.6713 48.4826 86.7014C58.3962 83.7315 57.6957 98.2073 57.6957 98.2073C57.6957 98.2073 69.9208 85.2772 69.3698 100.636C71.7046 99.9958 81.5715 102.335 69.0943 105.777Z" fill="#EFF1FA"/>
<path d="M48.5527 116.904H78.4009C78.4009 116.904 86.2739 111.348 78.0274 111.628C79.6664 104.539 75.0528 96.7738 64.6349 96.4749C54.217 96.176 57.8826 107.733 57.8826 107.733C57.8826 107.733 40.3856 103.563 45.6809 112.174C37.0094 112.599 41.4923 114.822 48.5527 116.904Z" fill="#EFF1FA"/>
<path d="M72.3865 118.511L48.9357 119.356C48.3236 119.363 47.7197 119.215 47.1807 118.925C46.6416 118.635 46.185 118.213 45.8537 117.698C44.9665 116.442 44.733 114.897 48.4827 114.43C47.2826 110.722 49.935 104.264 59.6291 103.764C69.3232 103.265 64.4621 112.226 64.4621 112.226C64.4621 112.226 79.1294 105.823 74.1236 115.345C76.3743 115.251 84.4948 118.077 72.3865 118.511Z" fill="#EFF1FA"/>
<path d="M117 177.81C167.003 177.81 207.539 175.444 207.539 172.524C207.539 169.605 167.003 167.238 117 167.238C66.9965 167.238 26.4607 169.605 26.4607 172.524C26.4607 175.444 66.9965 177.81 117 177.81Z" fill="#EFF1FA"/>
<path d="M104.392 87.2524H176.86C178.879 87.2833 180.814 88.0662 182.286 89.4479C183.758 90.8296 184.662 92.7109 184.821 94.7238L187.67 139.244C187.741 140.204 187.612 141.168 187.292 142.076C186.971 142.983 186.465 143.814 185.807 144.517C185.149 145.219 184.352 145.777 183.467 146.155C182.582 146.534 181.628 146.724 180.665 146.715H108.174C106.16 146.678 104.231 145.892 102.764 144.511C101.297 143.13 100.396 141.253 100.236 139.244L97.3875 94.7331C97.3143 93.7723 97.4417 92.8068 97.7614 91.8978C98.0812 90.9888 98.5864 90.1562 99.245 89.4528C99.9036 88.7494 100.701 88.1906 101.587 87.8118C102.473 87.433 103.428 87.2425 104.392 87.2524Z" fill="#6B34BC"/>
<path opacity="0.3" d="M104.392 87.2524H176.86C178.879 87.2833 180.814 88.0662 182.286 89.4479C183.758 90.8296 184.662 92.7109 184.821 94.7238L187.67 139.244C187.741 140.204 187.612 141.168 187.292 142.076C186.971 142.983 186.465 143.814 185.807 144.517C185.149 145.219 184.352 145.777 183.467 146.155C182.582 146.534 181.628 146.724 180.665 146.715H108.174C106.16 146.678 104.231 145.892 102.764 144.511C101.297 143.13 100.396 141.253 100.236 139.244L97.3875 94.7331C97.3143 93.7723 97.4417 92.8068 97.7614 91.8978C98.0812 90.9888 98.5864 90.1562 99.245 89.4528C99.9036 88.7494 100.701 88.1906 101.587 87.8118C102.473 87.433 103.428 87.2425 104.392 87.2524Z" fill="#EFF1FA"/>
<path d="M108.179 146.729H180.661C182.44 146.745 184.157 146.077 185.456 144.861L142.113 110.68L103.131 144.861C104.54 146.061 106.329 146.722 108.179 146.729Z" fill="#6B34BC"/>
<path opacity="0.5" d="M108.179 146.729H180.661C182.44 146.745 184.157 146.077 185.456 144.861L142.113 110.68L103.131 144.861C104.54 146.061 106.329 146.722 108.179 146.729Z" fill="#EFF1FA"/>
<path d="M142.804 121.513L180.708 88.2797C179.537 87.6044 178.211 87.247 176.86 87.2431H104.392C103.074 87.234 101.781 87.5931 100.656 88.2797L142.804 121.513Z" fill="#6B34BC"/>
<path d="M168.879 87.4252L166.353 47.8735C166.274 46.7901 165.791 45.7759 165 45.0314C164.208 44.287 163.167 43.8665 162.081 43.853H105.578C106.665 43.8674 107.706 44.2882 108.498 45.0323C109.29 45.7765 109.774 46.7901 109.855 47.8735L112.363 87.0983" fill="#EFF1FA"/>
<path d="M168.879 87.9996C168.73 87.9999 168.585 87.943 168.476 87.8406C168.367 87.7383 168.301 87.598 168.291 87.4485L165.765 47.8969C165.697 46.9626 165.281 46.0879 164.598 45.4461C163.916 44.8044 163.017 44.4424 162.08 44.432H108.716C109.215 44.8535 109.624 45.3706 109.92 45.9529C110.216 46.5351 110.393 47.1707 110.439 47.8222L112.947 87.047C112.957 87.1273 112.95 87.2089 112.928 87.2867C112.905 87.3645 112.867 87.4368 112.815 87.4992C112.764 87.5616 112.7 87.6128 112.628 87.6496C112.556 87.6864 112.477 87.708 112.396 87.7131C112.315 87.7182 112.234 87.7067 112.158 87.6793C112.082 87.6519 112.012 87.6092 111.953 87.5538C111.894 87.4983 111.846 87.4314 111.814 87.3571C111.782 87.2828 111.765 87.2027 111.765 87.1217L109.262 47.8969C109.194 46.9618 108.777 46.0864 108.094 45.4446C107.411 44.8027 106.511 44.4413 105.573 44.432C105.426 44.4189 105.288 44.351 105.188 44.2416C105.088 44.1323 105.033 43.9895 105.033 43.8413C105.033 43.6931 105.088 43.5503 105.188 43.441C105.288 43.3317 105.426 43.2637 105.573 43.2506H162.076C163.315 43.2611 164.506 43.7368 165.411 44.5835C166.317 45.4302 166.871 46.5861 166.965 47.8222L169.496 87.3738C169.505 87.5304 169.451 87.6842 169.347 87.8014C169.243 87.9187 169.097 87.9899 168.94 87.9996H168.879Z" fill="#6B34BC"/>
<path d="M105.573 43.839C105.056 43.8336 104.542 43.9359 104.066 44.1395C103.59 44.3431 103.161 44.6434 102.807 45.0215C102.453 45.3995 102.182 45.8471 102.01 46.3356C101.838 46.8242 101.77 47.3432 101.81 47.8595H109.851C109.769 46.7761 109.285 45.7624 108.493 45.0183C107.701 44.2741 106.66 43.8534 105.573 43.839Z" fill="#6B34BC"/>
<path d="M109.851 48.4526H101.81C101.659 48.4528 101.514 48.3953 101.405 48.2919C101.295 48.1886 101.23 48.0472 101.221 47.8969C101.175 47.2998 101.254 46.6998 101.452 46.1348C101.651 45.5699 101.965 45.0524 102.374 44.6154C102.784 44.1784 103.279 43.8313 103.83 43.5964C104.381 43.3614 104.975 43.2436 105.573 43.2506C106.813 43.2622 108.003 43.7382 108.908 44.5847C109.813 45.4312 110.368 46.5864 110.462 47.8222C110.467 47.903 110.456 47.9839 110.428 48.0601C110.401 48.1363 110.359 48.2063 110.304 48.2658C110.245 48.3267 110.175 48.3747 110.097 48.4069C110.019 48.4391 109.935 48.4546 109.851 48.4526ZM102.407 47.2665H109.164C108.965 46.462 108.505 45.7464 107.855 45.2324C107.205 44.7185 106.402 44.4352 105.573 44.4273C104.784 44.4124 104.019 44.6969 103.432 45.2238C102.844 45.7506 102.478 46.4805 102.407 47.2665Z" fill="#6B34BC"/>
<path d="M162.081 43.839H105.578C106.665 43.8534 107.706 44.2742 108.498 45.0183C109.29 45.7624 109.774 46.7761 109.855 47.8595L113.064 98.0626L142.804 121.513L169.58 98.3708L166.353 47.8502C166.272 46.7684 165.788 45.7565 164.997 45.014C164.206 44.2715 163.165 43.8523 162.081 43.839Z" fill="#EFF1FA"/>
<path opacity="0.3" d="M113.059 98.0626L142.8 121.523L169.58 98.3801L140.68 117.465L113.059 98.0626Z" fill="#6B34BC"/>
<path opacity="0.3" d="M163.453 75.6111H116.295L116.057 71.9361H163.22L163.453 75.6111Z" fill="#6B34BC"/>
<path opacity="0.3" d="M153.741 87.0002H117.019L116.785 83.3253H153.507L153.741 87.0002Z" fill="#6B34BC"/>
<path opacity="0.3" d="M164.91 98.3895H137.191L136.958 94.7098H164.677L164.91 98.3895Z" fill="#6B34BC"/>
<path opacity="0.3" d="M117.747 98.3895H132.587L132.349 94.7098H117.514L117.747 98.3895Z" fill="#6B34BC"/>
<g opacity="0.5">
<path d="M115.622 58.5389L115.422 55.4196H117.033C117.264 55.4119 117.495 55.4387 117.719 55.499C117.879 55.5483 118.019 55.6463 118.121 55.7792C118.227 55.9283 118.287 56.1053 118.293 56.2882C118.312 56.4353 118.288 56.5847 118.223 56.7181C118.158 56.8516 118.056 56.9634 117.929 57.04C117.826 57.1002 117.714 57.1428 117.598 57.1661C117.688 57.1909 117.775 57.2287 117.855 57.2781C117.978 57.3801 118.083 57.5015 118.167 57.6377L118.695 58.5389H117.602L117.028 57.605C116.979 57.515 116.914 57.4344 116.837 57.3669C116.765 57.3172 116.68 57.2911 116.594 57.2922H116.533L116.617 58.5576L115.622 58.5389ZM116.472 56.6711H116.879C116.964 56.6651 117.048 56.651 117.131 56.6291C117.193 56.6172 117.248 56.5821 117.285 56.531C117.32 56.477 117.336 56.4131 117.332 56.3489C117.331 56.3041 117.321 56.26 117.302 56.2196C117.282 56.1792 117.254 56.1436 117.219 56.1154C117.109 56.052 116.982 56.0243 116.855 56.036H116.43L116.472 56.6711Z" fill="#6B34BC"/>
<path d="M118.798 55.4196H121.385L121.427 56.0874H119.802L119.83 56.5823H121.333L121.371 57.2174H119.872L119.909 57.8338H121.576L121.623 58.5389H118.989L118.798 55.4196Z" fill="#6B34BC"/>
<path d="M124.144 57.2641L125.008 57.521C124.975 57.7333 124.895 57.9357 124.775 58.114C124.669 58.272 124.52 58.3967 124.345 58.4735C124.129 58.5613 123.897 58.6027 123.664 58.595C123.376 58.6041 123.09 58.5532 122.823 58.4455C122.581 58.3313 122.376 58.1518 122.23 57.9272C122.053 57.6467 121.951 57.3248 121.936 56.9933C121.906 56.7823 121.92 56.5675 121.978 56.3624C122.036 56.1574 122.136 55.9667 122.272 55.8025C122.421 55.656 122.6 55.5431 122.797 55.4714C122.993 55.3997 123.203 55.3709 123.411 55.3869C123.739 55.3723 124.064 55.4552 124.345 55.6251C124.598 55.8081 124.788 56.0639 124.892 56.3582L124.056 56.545C124.029 56.4721 123.993 56.4031 123.948 56.3395C123.891 56.2682 123.819 56.2094 123.738 56.1668C123.655 56.127 123.564 56.1063 123.472 56.106C123.378 56.1045 123.284 56.1284 123.202 56.1752C123.12 56.222 123.052 56.2901 123.005 56.3722C122.915 56.5625 122.882 56.7753 122.912 56.9839C122.904 57.2376 122.976 57.4873 123.117 57.6984C123.175 57.7638 123.248 57.815 123.329 57.8482C123.409 57.8813 123.497 57.8956 123.584 57.8898C123.66 57.8961 123.736 57.8855 123.807 57.8589C123.878 57.8323 123.942 57.7902 123.995 57.7357C124.086 57.5948 124.138 57.4319 124.144 57.2641Z" fill="#6B34BC"/>
<path d="M125.321 56.9839C125.293 56.772 125.309 56.5564 125.369 56.3513C125.43 56.1461 125.533 55.9559 125.671 55.7932C125.823 55.6445 126.005 55.5297 126.205 55.4565C126.405 55.3832 126.617 55.3532 126.83 55.3683C127.277 55.3441 127.717 55.4929 128.058 55.7839C128.369 56.0952 128.547 56.5157 128.553 56.9559C128.585 57.2606 128.541 57.5685 128.427 57.8525C128.321 58.0825 128.147 58.2737 127.927 58.3988C127.664 58.5389 127.37 58.6065 127.072 58.595C126.769 58.6043 126.468 58.5469 126.19 58.4269C125.944 58.3091 125.737 58.1246 125.592 57.8945C125.425 57.6194 125.332 57.3057 125.321 56.9839ZM126.283 56.9839C126.28 57.2275 126.358 57.4653 126.503 57.661C126.562 57.7262 126.634 57.7781 126.714 57.8135C126.795 57.8489 126.882 57.867 126.97 57.8665C127.058 57.8722 127.146 57.857 127.227 57.8221C127.308 57.7872 127.38 57.7336 127.437 57.6657C127.557 57.4449 127.6 57.19 127.558 56.9419C127.562 56.708 127.485 56.48 127.339 56.2975C127.276 56.2298 127.199 56.1763 127.113 56.1409C127.028 56.1054 126.936 56.0888 126.844 56.092C126.755 56.0861 126.666 56.1017 126.585 56.1375C126.504 56.1733 126.432 56.2282 126.377 56.2975C126.267 56.5102 126.234 56.7544 126.283 56.9886V56.9839Z" fill="#6B34BC"/>
<path d="M128.964 55.4196H130.229L130.841 57.3201L131.205 55.4196H132.475L132.671 58.5389H131.882L131.733 56.1621L131.266 58.5389H130.542L129.781 56.1621L129.935 58.5389H129.146L128.964 55.4196Z" fill="#6B34BC"/>
<path d="M133.077 55.4196H134.348L134.955 57.3201L135.319 55.4196H136.612L136.813 58.5389H136.019L135.87 56.1621L135.403 58.5389H134.688L133.927 56.1621L134.081 58.5389H133.292L133.077 55.4196Z" fill="#6B34BC"/>
<path d="M137.201 55.4196H139.788L139.83 56.0874H138.209L138.242 56.5823H139.741L139.783 57.2174H138.284L138.321 57.8338H139.988L140.03 58.5389H137.401L137.201 55.4196Z" fill="#6B34BC"/>
<path d="M140.348 55.4196H141.282L142.566 57.1474L142.459 55.4196H143.365L143.566 58.5389H142.655L141.38 56.8298L141.488 58.5389H140.582L140.348 55.4196Z" fill="#6B34BC"/>
<path d="M143.995 55.4196H145.429C145.665 55.4102 145.9 55.45 146.12 55.5364C146.3 55.6059 146.46 55.7181 146.587 55.8632C146.711 56.0125 146.806 56.1835 146.867 56.3676C146.931 56.5627 146.97 56.7651 146.984 56.9699C147.009 57.2301 146.986 57.4927 146.918 57.7451C146.862 57.9224 146.763 58.083 146.629 58.212C146.514 58.3296 146.371 58.415 146.213 58.4595C146.028 58.5122 145.836 58.5405 145.643 58.5436H144.21L143.995 55.4196ZM145.018 56.1387L145.125 57.8431H145.359C145.505 57.854 145.653 57.83 145.788 57.7731C145.876 57.7203 145.94 57.6372 145.97 57.5396C146.019 57.3634 146.032 57.1792 146.008 56.9979C146.018 56.7555 145.945 56.5169 145.802 56.3209C145.729 56.2542 145.642 56.2037 145.548 56.1723C145.454 56.141 145.355 56.1295 145.256 56.1387H145.018Z" fill="#6B34BC"/>
<path d="M149.272 58.0066H148.179L148.058 58.5202H147.072L148.048 55.4009H149.099L150.472 58.5202H149.463L149.272 58.0066ZM149.029 57.3342L148.613 56.2088L148.342 57.3342H149.029Z" fill="#6B34BC"/>
<path d="M150.061 55.4196H152.989L153.04 56.1901H152.055L152.209 58.5249H151.242L151.093 56.1901H150.107L150.061 55.4196Z" fill="#6B34BC"/>
<path d="M153.465 55.4196H154.432L154.632 58.5389H153.666L153.465 55.4196Z" fill="#6B34BC"/>
<path d="M155.104 56.9839C155.075 56.772 155.092 56.5564 155.152 56.3513C155.213 56.1461 155.315 55.9559 155.454 55.7932C155.606 55.644 155.788 55.5289 155.987 55.4556C156.187 55.3824 156.4 55.3526 156.612 55.3683C157.058 55.3438 157.497 55.4927 157.836 55.7839C158.149 56.0944 158.328 56.515 158.335 56.9559C158.367 57.2606 158.324 57.5685 158.209 57.8525C158.104 58.0825 157.929 58.2737 157.71 58.3988C157.447 58.5389 157.152 58.6066 156.855 58.595C156.552 58.6049 156.251 58.5475 155.972 58.4269C155.727 58.3091 155.52 58.1246 155.375 57.8945C155.208 57.6194 155.114 57.3057 155.104 56.9839ZM156.066 56.9839C156.063 57.2276 156.14 57.4653 156.285 57.661C156.347 57.7292 156.423 57.7829 156.508 57.8184C156.592 57.8539 156.684 57.8704 156.776 57.8665C156.864 57.8722 156.952 57.857 157.033 57.8221C157.114 57.7872 157.186 57.7336 157.243 57.6657C157.363 57.4449 157.406 57.19 157.364 56.9419C157.367 56.7084 157.289 56.4809 157.145 56.2975C157.082 56.2298 157.005 56.1763 156.919 56.1409C156.834 56.1054 156.742 56.0888 156.65 56.0921C156.561 56.0861 156.472 56.1017 156.391 56.1375C156.31 56.1733 156.238 56.2282 156.183 56.2975C156.062 56.5065 156.021 56.7517 156.066 56.9886V56.9839Z" fill="#6B34BC"/>
<path d="M158.76 55.4196H159.661L160.946 57.1474L160.838 55.4196H161.744L161.945 58.5389H161.039L159.76 56.8298L159.867 58.5389H158.961L158.76 55.4196Z" fill="#6B34BC"/>
<path d="M129.753 60.1499H130.719L130.869 62.4847H132.372L132.424 63.2552H129.953L129.753 60.1499Z" fill="#6B34BC"/>
<path d="M132.662 60.1499H135.244L135.286 60.813H133.671L133.703 61.308H135.211L135.253 61.9477H133.75L133.792 62.5641H135.454L135.501 63.2692H132.877L132.662 60.1499Z" fill="#6B34BC"/>
<path d="M135.59 60.1499H138.522L138.573 60.9204H137.588L137.738 63.2552H136.776L136.626 60.9204H135.641L135.59 60.1499Z" fill="#6B34BC"/>
<path d="M138.742 60.1499H141.67L141.721 60.9204H140.736L140.89 63.2552H139.923L139.774 60.9204H138.788L138.742 60.1499Z" fill="#6B34BC"/>
<path d="M142.104 60.1499H144.691L144.733 60.813H143.117L143.145 61.308H144.649L144.686 61.9477H143.187L143.224 62.5641H144.892L144.938 63.2692H142.305L142.104 60.1499Z" fill="#6B34BC"/>
<path d="M145.485 63.2693L145.284 60.1499H146.886C147.117 60.1411 147.348 60.1663 147.572 60.2247C147.733 60.2744 147.874 60.3742 147.974 60.5095C148.082 60.6558 148.144 60.8316 148.151 61.0138C148.167 61.1743 148.138 61.3361 148.067 61.4808C148.003 61.6071 147.904 61.7124 147.782 61.7843C147.68 61.8453 147.568 61.888 147.451 61.9104C147.544 61.9346 147.632 61.974 147.712 62.0271C147.773 62.0753 147.827 62.1301 147.876 62.1906C147.931 62.2499 147.981 62.314 148.025 62.382L148.548 63.2879H147.46L146.881 62.354C146.836 62.2614 146.772 62.1788 146.694 62.1112C146.621 62.066 146.537 62.0417 146.451 62.0411H146.367L146.447 63.3066L145.485 63.2693ZM146.335 61.4014H146.741C146.826 61.3947 146.91 61.3807 146.993 61.3594C147.053 61.346 147.106 61.3112 147.142 61.2613C147.18 61.2083 147.196 61.1436 147.189 61.0792C147.189 61.0355 147.179 60.9924 147.161 60.9529C147.142 60.9134 147.115 60.8784 147.082 60.8504C146.972 60.7842 146.845 60.7547 146.718 60.7663H146.293L146.335 61.4014Z" fill="#6B34BC"/>
</g>
<path d="M150.439 18.7024H149.972L149.762 15.6672H150.229L150.439 18.7024Z" fill="#6B34BC"/>
<path d="M150.07 13.3324H149.603L149.136 6.89763C149.017 5.22199 148.402 3.61956 147.371 2.29339L147.735 2.02722C148.825 3.4308 149.475 5.12541 149.603 6.89763L150.07 13.3324Z" fill="#6B34BC"/>
<path d="M93.5537 0.000592674H140.609C142.475 0.0321453 144.263 0.755064 145.626 2.02929C146.989 3.30351 147.83 5.03833 147.987 6.89762L149.645 30.8388C149.719 31.7232 149.608 32.6134 149.318 33.4522C149.028 34.2911 148.566 35.0601 147.962 35.7099C147.357 36.3597 146.623 36.876 145.808 37.2257C144.992 37.5754 144.112 37.7507 143.224 37.7404H139.746L140.353 46.468L131.009 37.7404H96.1687C94.3026 37.7077 92.5151 36.9838 91.1521 35.7088C89.7891 34.4338 88.9477 32.6985 88.7907 30.8388L87.1143 6.89762C87.0413 6.01212 87.1543 5.12115 87.4459 4.28187C87.7375 3.4426 88.2014 2.67357 88.8078 2.02413C89.4141 1.37469 90.1495 0.859187 90.9669 0.51071C91.7842 0.162234 92.6653 -0.0115229 93.5537 0.000592674Z" fill="#6B34BC"/>
<path d="M105.951 17.6191H106.04C105.577 17.6125 105.13 17.4477 104.773 17.1521C104.417 16.8566 104.172 16.448 104.079 15.9941C104.056 15.725 104.09 15.4541 104.178 15.1988C104.266 14.9435 104.406 14.7095 104.59 14.5116C104.774 14.3138 104.997 14.1565 105.245 14.0499C105.493 13.9434 105.761 13.8898 106.031 13.8927H106.727L114.315 13.1783C114.009 11.87 113.781 10.5445 113.633 9.20909C113.413 7.0097 114.679 4.29666 116.776 5.26794C117.621 5.66019 117.317 8.39191 117.789 9.47059C118.261 10.5493 122.248 13.7386 123.463 16.0081C123.788 16.1376 124.07 16.356 124.278 16.6384C124.485 16.9208 124.609 17.2558 124.635 17.6051L125.134 24.8103C125.173 25.3185 125.107 25.8293 124.941 26.3111C124.774 26.793 124.511 27.2357 124.168 27.6121C123.816 27.9823 123.392 28.2765 122.922 28.4765C122.452 28.6764 121.947 28.778 121.436 28.7748H108.94C108.505 28.7766 108.081 28.6426 107.726 28.3914C107.371 28.1403 107.103 27.7845 106.96 27.3739C106.868 27.1118 106.84 26.8314 106.879 26.5562C106.918 26.2811 107.023 26.0195 107.185 25.7936C107.347 25.5677 107.56 25.3841 107.808 25.2584C108.056 25.1328 108.331 25.0687 108.608 25.0718H107.011C106.573 25.0652 106.152 24.8958 105.831 24.5964C105.51 24.2969 105.311 23.8889 105.274 23.4514C105.217 23.1978 105.218 22.9345 105.277 22.6813C105.337 22.4281 105.452 22.1916 105.616 21.9894C105.779 21.7873 105.986 21.6248 106.222 21.514C106.457 21.4033 106.714 21.3473 106.974 21.3501H106.124C105.632 21.3422 105.16 21.156 104.795 20.8263C104.43 20.4965 104.197 20.0455 104.14 19.557C104.115 19.3071 104.144 19.0548 104.224 18.817C104.305 18.5792 104.435 18.3613 104.607 18.1778C104.778 17.9944 104.987 17.8497 105.219 17.7534C105.451 17.657 105.7 17.6112 105.951 17.6191Z" fill="#EFF1FA"/>
<path d="M128.371 28.7888H130.705C130.885 28.7909 131.063 28.7552 131.228 28.684C131.393 28.6129 131.542 28.5079 131.663 28.3759C131.785 28.2438 131.878 28.0877 131.936 27.9175C131.994 27.7473 132.015 27.5669 131.999 27.3879L131.275 16.942C131.246 16.5648 131.077 16.2121 130.802 15.953C130.526 15.6939 130.164 15.547 129.785 15.5411H127.474C127.294 15.5391 127.116 15.5748 126.95 15.6459C126.785 15.717 126.637 15.8219 126.514 15.9538C126.392 16.0858 126.299 16.2419 126.24 16.4121C126.182 16.5823 126.16 16.7628 126.176 16.942L126.9 27.3879C126.929 27.7615 127.096 28.1111 127.367 28.3696C127.639 28.6281 127.996 28.7773 128.371 28.7888Z" fill="#EFF1FA"/>
</svg>
