<svg width="61" height="61" viewBox="0 0 61 61" fill="none" xmlns="http://www.w3.org/2000/svg">
<circle cx="30.5" cy="30.5" r="30" fill="#3C977C" fill-opacity="0.3"/>
<circle cx="30.2435" cy="30.4999" r="25.3846" fill="#3C977C"/>
<path fill-rule="evenodd" clip-rule="evenodd" d="M27.6799 21.2695C28.3148 21.2695 28.9343 21.4659 29.4533 21.8318C29.9723 22.1976 30.3654 22.7151 30.5788 23.3131H39.7311V24.6029L37.4234 26.1577V38.7054H38.9619C39.0979 38.7054 39.2283 38.7595 39.3245 38.8556C39.4207 38.9518 39.4747 39.0822 39.4747 39.2183C39.4747 39.3543 39.4207 39.4847 39.3245 39.5809C39.2283 39.677 39.0979 39.7311 38.9619 39.7311H37.4234V39.7388H23.0645V39.7311H21.526C21.39 39.7311 21.2596 39.677 21.1634 39.5809C21.0672 39.4847 21.0132 39.3543 21.0132 39.2183C21.0132 39.0822 21.0672 38.9518 21.1634 38.8556C21.2596 38.7595 21.39 38.7054 21.526 38.7054H23.0645V26.1398L21.0132 24.5859V23.3126H24.7809C24.9944 22.7146 25.3875 22.1973 25.9065 21.8316C26.4255 21.4658 27.0449 21.2695 27.6799 21.2695ZM28.1927 23.8336V22.808H27.167V23.8336H26.1414V24.8593H27.167V25.8849H28.1927V24.8593H29.2183V23.8336H28.1927ZM35.3722 30.5003V38.7054H31.2696V30.5003H35.3722ZM28.7055 30.5003H25.1157V34.09H28.7055V30.5003Z" fill="#EFF1FA"/>
</svg>
