<svg width="75" height="80" viewBox="0 0 75 80" fill="none" xmlns="http://www.w3.org/2000/svg">
<circle cx="40.5" cy="40.5" r="34.5" fill="#6B34BC"/>
<path d="M43.3554 2.36806C38.0183 2.20908 32.7052 3.08151 27.7335 4.93326C22.7617 6.78501 18.2332 9.5781 14.4183 13.1458C10.6035 16.7134 7.58052 20.9825 5.52995 25.6981C3.47939 30.4136 2.44327 35.479 2.48347 40.5917C2.52368 45.7043 3.63937 50.7595 5.76393 55.4553C7.8885 60.1511 10.9784 64.3912 14.849 67.9225C18.7197 71.4538 23.2918 74.2038 28.2923 76.0084C33.2929 77.8129 38.6193 78.635 43.9535 78.4255" stroke="#6B34BC" stroke-width="3"/>
<path d="M43 35L49 41M49 41L43 47M49 41H34" stroke="#EFF1FA" stroke-width="2" stroke-linecap="round" stroke-linejoin="round"/>
</svg>
