<svg width="40" height="41" viewBox="0 0 40 41" fill="none" xmlns="http://www.w3.org/2000/svg">
<circle cx="20" cy="20.5" r="20" fill="white" fill-opacity="0.1"/>
<path fill-rule="evenodd" clip-rule="evenodd" d="M14.8104 12.8939C15.9718 11.3965 17.7716 10.2642 20.2463 10.2642C22.7206 10.2642 24.5203 11.3965 25.6819 12.8939C26.8251 14.3676 27.3573 16.1987 27.3573 17.6837C27.3573 18.1099 27.3443 18.4264 27.3345 18.6665C27.3325 18.7159 27.3306 18.762 27.3289 18.8052C27.3193 19.0635 27.3212 19.1876 27.3411 19.3105C27.3863 19.5901 27.5293 19.9345 28.1007 21.1938C28.1064 21.2064 28.1118 21.2192 28.1168 21.2321C28.5296 22.2945 28.4373 23.2719 27.9463 24.1001C27.4777 24.8905 26.6902 25.4724 25.839 25.8971C24.1367 26.7463 21.8863 27.1118 20.2463 27.1118C18.6059 27.1118 16.3553 26.7463 14.653 25.8971C13.8017 25.4724 13.0142 24.8904 12.5458 24.1C12.0549 23.2717 11.9628 22.2943 12.3759 21.2319C12.3809 21.2191 12.3862 21.2064 12.3919 21.1938C12.9633 19.9345 13.1064 19.5901 13.1515 19.3105C13.1714 19.1876 13.1733 19.0635 13.1637 18.8052C13.1621 18.762 13.1602 18.7159 13.1582 18.6665C13.1483 18.4264 13.1354 18.1099 13.1354 17.6837C13.1354 16.1988 13.6672 14.3677 14.8104 12.8939ZM15.9956 13.8132C15.0669 15.0106 14.6354 16.5143 14.6354 17.6837C14.6354 18.0768 14.647 18.3608 14.6567 18.5999C14.6588 18.6515 14.6608 18.701 14.6626 18.7491C14.6726 19.015 14.6778 19.2682 14.6323 19.5498C14.5478 20.0728 14.2909 20.639 13.7769 21.7717L13.7669 21.7937C13.518 22.4464 13.5979 22.9331 13.8362 23.3353C14.0992 23.7791 14.6033 24.1961 15.3226 24.5549C16.7612 25.2725 18.7668 25.6118 20.2463 25.6118C21.7253 25.6118 23.7307 25.2725 25.1694 24.5549C25.8886 24.1961 26.3928 23.7791 26.656 23.3352C26.8944 22.933 26.9743 22.4463 26.7257 21.7937L26.7157 21.7716C26.2017 20.639 25.9448 20.0728 25.8603 19.5498C25.8148 19.2682 25.8201 19.015 25.83 18.7491C25.8318 18.7011 25.8338 18.6515 25.8359 18.5999C25.8457 18.3608 25.8573 18.0768 25.8573 17.6837C25.8573 16.5144 25.4256 15.0107 24.4967 13.8133C23.5861 12.6394 22.2054 11.7642 20.2463 11.7642C18.2867 11.7642 16.9061 12.6394 15.9956 13.8132Z" fill="#EFF1FA"/>
<path fill-rule="evenodd" clip-rule="evenodd" d="M17.4364 28.4528C17.7453 28.1769 18.2195 28.2036 18.4954 28.5126C19.501 29.6383 20.9982 29.6279 21.9973 28.5119C22.2735 28.2033 22.7477 28.1771 23.0563 28.4534C23.3649 28.7297 23.3911 29.2038 23.1148 29.5124C21.5254 31.2879 18.9845 31.3118 17.3767 29.5118C17.1008 29.2029 17.1275 28.7288 17.4364 28.4528Z" fill="#EFF1FA"/>
<circle cx="33" cy="7.5" r="4.5" fill="#F4BECD" stroke="#EFF1FA"/>
</svg>
