<svg width="40" height="41" viewBox="0 0 40 41" fill="none" xmlns="http://www.w3.org/2000/svg">
<circle cx="20" cy="20.5" r="20" fill="white" fill-opacity="0.1"/>
<path fill-rule="evenodd" clip-rule="evenodd" d="M24.5139 29.9998H16.166C13.0997 29.9998 10.7473 28.8922 11.4155 24.4346L12.1935 18.3934C12.6054 16.1691 14.0242 15.3179 15.269 15.3179H25.4475C26.7107 15.3179 28.047 16.2332 28.523 18.3934L29.301 24.4346C29.8686 28.3888 27.5802 29.9998 24.5139 29.9998Z" stroke="#EFF1FA" stroke-width="1.5" stroke-linecap="round" stroke-linejoin="round"/>
<path d="M24.6512 15.0983C24.6512 12.7122 22.7169 10.7779 20.3309 10.7779C19.1819 10.773 18.0782 11.2261 17.2641 12.0368C16.4499 12.8476 15.9922 13.9493 15.9922 15.0983" stroke="#EFF1FA" stroke-width="1.5" stroke-linecap="round" stroke-linejoin="round"/>
<path d="M23.2963 19.6016H23.2505" stroke="#EFF1FA" stroke-width="1.5" stroke-linecap="round" stroke-linejoin="round"/>
<path d="M17.4657 19.6016H17.4199" stroke="#EFF1FA" stroke-width="1.5" stroke-linecap="round" stroke-linejoin="round"/>
</svg>
