<svg width="134" height="143" viewBox="0 0 134 143" fill="none" xmlns="http://www.w3.org/2000/svg">
<mask id="path-1-outside-1_245_10883" maskUnits="userSpaceOnUse" x="-0.317871" y="0" width="135" height="143" fill="black">
<rect fill="white" x="-0.317871" width="135" height="143"/>
<path fill-rule="evenodd" clip-rule="evenodd" d="M42.9217 1C55.9527 47.1786 89.4501 84.7737 133 103.371V122C133 130.858 127.242 138.37 119.265 140.999C60.3324 116.583 15.7498 64.5277 1.68213 1H42.9217Z"/>
</mask>
<path fill-rule="evenodd" clip-rule="evenodd" d="M42.9217 1C55.9527 47.1786 89.4501 84.7737 133 103.371V122C133 130.858 127.242 138.37 119.265 140.999C60.3324 116.583 15.7498 64.5277 1.68213 1H42.9217Z" fill="#5D309C" fill-opacity="0.05"/>
<path d="M42.9217 1L43.8842 0.72842L43.6786 0H42.9217V1ZM133 103.371H134V102.711L133.393 102.452L133 103.371ZM119.265 140.999L118.882 141.923L119.225 142.065L119.578 141.949L119.265 140.999ZM1.68213 1V0H0.436463L0.705781 1.2162L1.68213 1ZM41.9593 1.27158C55.0732 47.7443 88.7822 85.5759 132.607 104.291L133.393 102.452C90.118 83.9716 56.8321 46.6129 43.8842 0.72842L41.9593 1.27158ZM132 103.371V122H134V103.371H132ZM132 122C132 130.413 126.531 137.552 118.952 140.049L119.578 141.949C127.953 139.189 134 131.302 134 122H132ZM0.705781 1.2162C14.845 65.0672 59.6527 117.383 118.882 141.923L119.647 140.075C61.0121 115.782 16.6545 63.9881 2.65848 0.783796L0.705781 1.2162ZM1.68213 2H42.9217V0H1.68213V2Z" fill="white" mask="url(#path-1-outside-1_245_10883)"/>
</svg>
