<svg width="60" height="61" viewBox="0 0 60 61" fill="none" xmlns="http://www.w3.org/2000/svg">
<circle cx="30" cy="30.5" r="30" fill="#355F9E" fill-opacity="0.3"/>
<circle cx="29.9999" cy="30.4999" r="25.3846" fill="#355F9E"/>
<path d="M32.9124 34.8693C36.0098 35.4539 38.2047 36.9514 38.2047 38.7052V40.7565H21.7944V38.7052C21.7944 36.9514 23.9893 35.4539 27.0867 34.8693L29.9996 39.7308L32.9124 34.8693ZM25.897 26.3975H34.1021V28.4488C34.1021 29.5369 33.6699 30.5804 32.9005 31.3497C32.1311 32.1191 31.0876 32.5514 29.9996 32.5514C28.9115 32.5514 27.868 32.1191 27.0986 31.3497C26.3292 30.5804 25.897 29.5369 25.897 28.4488V26.3975ZM25.897 25.3719L26.3175 21.1667C26.343 20.9129 26.4622 20.6776 26.6519 20.5069C26.8415 20.3363 27.088 20.2424 27.3432 20.2437H32.6662C33.1893 20.2437 33.6303 20.6437 33.6816 21.1667L34.1021 25.3719H25.897ZM29.9996 21.2693H28.9739V22.2949H27.9483V23.3206H28.9739V24.3462H29.9996V23.3206H31.0252V22.2949H29.9996V21.2693Z" fill="#EFF1FA"/>
</svg>
