<svg width="61" height="60" viewBox="0 0 61 60" fill="none" xmlns="http://www.w3.org/2000/svg">
<circle cx="30.5" cy="30" r="30" fill="#355F9E" fill-opacity="0.3"/>
<circle cx="30.4999" cy="30.0001" r="25.3846" fill="#355F9E"/>
<path d="M19.9785 20.5208L22.2318 20.9108L23.2751 33.3398C23.3585 34.3549 24.2068 35.1338 25.2251 35.1306H37.0432C38.0149 35.1328 38.8394 34.4178 38.9769 33.4558L40.005 26.3513C40.1198 25.5572 39.5684 24.8205 38.7754 24.7057C38.7061 24.6959 22.5937 24.6905 22.5937 24.6905" stroke="white" stroke-width="1.5" stroke-linecap="round" stroke-linejoin="round"/>
<path d="M32.3008 28.6943H35.3049" stroke="white" stroke-width="1.5" stroke-linecap="round" stroke-linejoin="round"/>
<path fill-rule="evenodd" clip-rule="evenodd" d="M24.7495 38.886C25.0756 38.886 25.3388 39.1503 25.3388 39.4753C25.3388 39.8014 25.0756 40.0657 24.7495 40.0657C24.4234 40.0657 24.1602 39.8014 24.1602 39.4753C24.1602 39.1503 24.4234 38.886 24.7495 38.886Z" fill="white" stroke="white" stroke-width="1.5" stroke-linecap="round" stroke-linejoin="round"/>
<path fill-rule="evenodd" clip-rule="evenodd" d="M36.9702 38.886C37.2963 38.886 37.5606 39.1503 37.5606 39.4753C37.5606 39.8014 37.2963 40.0657 36.9702 40.0657C36.6441 40.0657 36.3809 39.8014 36.3809 39.4753C36.3809 39.1503 36.6441 38.886 36.9702 38.886Z" fill="white" stroke="white" stroke-width="1.5" stroke-linecap="round" stroke-linejoin="round"/>
</svg>
