<svg width="61" height="61" viewBox="0 0 61 61" fill="none" xmlns="http://www.w3.org/2000/svg">
<circle cx="30.5" cy="30.5" r="30" fill="#DB6729" fill-opacity="0.3"/>
<circle cx="30.1156" cy="30.4999" r="25.3846" fill="#DB6729"/>
<g clip-path="url(#clip0_245_10178)">
<path d="M41.3165 38.3769H33.3259V40.3461H41.3982C41.5762 40.3549 41.7517 40.3022 41.8954 40.1969C42.0391 40.0915 42.1422 39.94 42.1874 39.7677V39.2901C42.1874 39.2901 42.1815 38.3769 41.3165 38.3769ZM40.2113 37.988C40.7358 37.9872 41.2386 37.7782 41.6091 37.4069C41.9797 37.0356 42.1877 36.5324 42.1874 36.0079C42.1874 34.9115 41.3013 34.0273 40.2113 34.0273C39.9517 34.0278 39.6948 34.0794 39.4552 34.1792C39.2155 34.279 38.9979 34.425 38.8148 34.609C38.6316 34.7929 38.4865 35.0111 38.3877 35.2511C38.289 35.4912 38.2385 35.7483 38.2391 36.0079C38.2391 37.1003 39.1228 37.988 40.2113 37.988ZM36.0493 37.8846C37.0861 37.8846 37.9201 37.154 37.9201 36.1187C37.9196 35.0853 37.0827 34.5433 36.0537 34.5354L33.3259 34.881V37.8846H36.0493ZM27.1833 25.0516C28.3939 25.0516 29.3731 24.067 29.3731 22.8525C29.3731 21.6379 28.3939 20.6538 27.1833 20.6538C25.9737 20.6538 24.9931 21.6379 24.9931 22.8525C24.9931 24.067 25.9737 25.0516 27.1833 25.0516ZM24.9473 32.1684L24.9276 32.1398L23.9351 29.8289L23.9336 34.4384H26.8998L27.5477 33.7492L25.7906 33.0728C25.3741 32.9162 25.0782 32.5617 24.9473 32.1684ZM25.576 31.9611C25.672 32.1768 25.8497 32.3515 26.0732 32.4318L29.4588 33.6867C29.5619 33.7321 29.673 33.7566 29.7857 33.759C29.8984 33.7613 30.0104 33.7414 30.1153 33.7003C30.2203 33.6592 30.3161 33.5978 30.3972 33.5196C30.4783 33.4414 30.5432 33.3479 30.5881 33.2446C30.6798 33.0351 30.6849 32.7979 30.6022 32.5848C30.5196 32.3716 30.3559 32.1998 30.147 32.1069L27.0233 30.9273L26.0584 28.6129L26.6876 28.3786L27.5053 30.3616L29.8797 31.2419V28.8187L31.14 29.5685L31.7682 32.7331C31.8044 32.8401 31.8614 32.939 31.936 33.0239C32.0106 33.1088 32.1013 33.178 32.2029 33.2276C32.3044 33.2773 32.4148 33.3063 32.5276 33.313C32.6404 33.3197 32.7534 33.304 32.8601 33.2667C33.075 33.1903 33.2511 33.0322 33.3502 32.8268C33.4493 32.6213 33.4633 32.3851 33.3894 32.1694L32.6854 29.1215C32.6393 28.9528 32.5427 28.8021 32.4087 28.6897C32.0478 28.29 30.2229 26.2494 30.0929 26.113C29.9024 25.922 29.4667 25.5769 28.6435 25.5769H25.6897C24.0109 25.5769 23.688 27.2901 24.0311 28.1615L25.576 31.9611ZM32.8336 34.9307H19.525C19.0406 34.9307 18.5566 35.204 18.5566 35.8051V40.3461H32.8336V34.9307Z" fill="#EFF1FA"/>
</g>
<defs>
<clipPath id="clip0_245_10178">
<rect width="24.6154" height="24.6154" fill="white" transform="translate(18.0645 18.1924)"/>
</clipPath>
</defs>
</svg>
