<svg width="61" height="60" viewBox="0 0 61 60" fill="none" xmlns="http://www.w3.org/2000/svg">
<circle cx="30.666" cy="30" r="30" fill="#DB6729" fill-opacity="0.3"/>
<circle cx="30.2811" cy="30.0001" r="25.3846" fill="#DB6729"/>
<path fill-rule="evenodd" clip-rule="evenodd" d="M35.3214 33.8333C35.4091 35.818 33.8073 37.4963 31.744 37.5807C31.592 37.5871 24.1831 37.5721 24.1831 37.5721C22.1298 37.728 20.3327 36.2525 20.1708 34.2753C20.1586 34.1279 20.1619 26.1783 20.1619 26.1783C20.0709 24.1914 21.6705 22.5088 23.7349 22.4213C23.8891 22.4138 31.2881 22.4277 31.2881 22.4277C33.3513 22.2739 35.1539 23.7601 35.3137 25.747C35.3249 25.89 35.3214 33.8333 35.3214 33.8333Z" stroke="white" stroke-width="1.5" stroke-linecap="round" stroke-linejoin="round"/>
<path d="M35.3242 27.8117L38.8916 24.8921C39.7756 24.1684 41.1016 24.7989 41.1006 25.9397L41.0876 33.9011C41.0865 35.0418 39.7594 35.6669 38.8776 34.9432L35.3242 32.0237" stroke="white" stroke-width="1.5" stroke-linecap="round" stroke-linejoin="round"/>
</svg>
